<svg xmlns="http://www.w3.org/2000/svg" viewBox="-810.525 5603.908 168.421 181.88">
  <g id="Group_288" data-name="Group 288" transform="translate(-642.122 5785.788) rotate(180)">
    <path id="Path_18" data-name="Path 18" d="M166.093,0c2.527,1.482,2.963,3.021,1.394,5.49a29.4,29.4,0,0,1-17.023,12.753c-7.262,2.15-14.525,1.6-21.816-.029a85.592,85.592,0,0,0-20.858-2.208A76.811,76.811,0,0,0,82.14,21a1.21,1.21,0,0,0-.61.61c1.627.087,3.283.174,5.2.29-1.075,2.063-1.946,4.009-3.021,5.781-4.1,6.652-8.25,13.3-12.433,19.9-.465.726-.465,1.133.087,1.743,1.6,1.743,3.137,3.544,4.822,5.49,2.208-3.224,4.474-6.188,6.333-9.383,4.125-7.03,8.047-14.205,12.027-21.322.436-.784.813-1.133,1.772-.842,1.946.552,3.922.959,6.042,1.482-.813,1.946-1.452,3.718-2.295,5.374-3.312,6.507-6.507,13.043-10.08,19.405-2.469,4.357-5.461,8.424-8.192,12.666a1.554,1.554,0,0,0-.145,1.365c1.569,1.888,3.225,3.689,5.026,5.723a178.769,178.769,0,0,0,23.24-41.919c2.15.988,4.27,1.946,6.478,2.963-.813,2.44-1.54,4.764-2.382,7.059a148.881,148.881,0,0,1-16.82,32.971c-4.445,6.449-9.093,12.753-14,18.824a223.541,223.541,0,0,1-26.377,27.1,288.315,288.315,0,0,1-29.456,22.978c-4.183,2.847-8.453,5.578-12.9,8.512-1.1-1.743-2.121-3.341-3.137-4.938-.32-.523-.639-1.075-.959-1.627-1.394-2.382-1.394-2.382.93-3.805a310.08,310.08,0,0,0,29.979-21.381,3.294,3.294,0,0,1,.784-.378c-2-2.237-3.747-4.212-5.578-6.246A325.32,325.32,0,0,1,5.71,131.449a17.19,17.19,0,0,1-.755-1.714c-.9-2.9-1.772-5.81-2.673-8.715a1.36,1.36,0,0,1,.7-1.772q12.244-8.758,24.431-17.633c.581-.407,1.075-.959,1.743-1.54-1.8-2.033-3.544-4.009-5.258-5.955C16.139,99.843,8.528,105.508.6,111.376A81.118,81.118,0,0,1,2.718,80.729c3.137,4.154,6.129,8.1,9.209,12.2,2.179-1.714,4.27-3.341,6.449-5.055-1.8-2.353-3.573-4.648-5.287-6.972-2.266-3.079-4.474-6.188-6.681-9.3a1.263,1.263,0,0,1-.2-1.046c1.743-3.573,3.544-7.146,5.548-11.1a316.149,316.149,0,0,0,38.636,51.389c2.033-1.888,3.98-3.689,5.984-5.548-2.121-2.382-4.3-4.619-6.217-7.03C44.4,91.129,38.478,84.1,33.075,76.691c-5.374-7.379-10.2-15.164-15.28-22.717a2.008,2.008,0,0,1,.29-2.992c1.83-1.859,3.515-3.835,5.229-5.81.32-.349.465-.871.871-1.191A330.325,330.325,0,0,0,64.855,97.839c1.743-1.859,3.428-3.6,5-5.432a1.545,1.545,0,0,0-.2-1.394c-2.179-2.527-4.5-4.938-6.623-7.524-5.2-6.42-10.574-12.724-15.4-19.405-5.723-7.96-10.952-16.239-16.413-24.4a11.315,11.315,0,0,1-.581-1.1c3.079-2.092,6.129-4.183,9.122-6.217,6.071,8.773,11.968,17.546,18.156,26.087A259.665,259.665,0,0,0,78.247,82.878c1.743-2.121,3.428-4.212,5.229-6.449A318.239,318.239,0,0,1,47.338,28.556c2.324-.9,4.561-1.83,6.827-2.585.32-.116,1.046.349,1.307.7,3.37,4.706,6.681,9.47,10.022,14.234a2.8,2.8,0,0,1,.261.726c2.092-2.382,3.864-4.445,5.694-6.536-2.789-3.864-5.519-7.669-8.4-11.678,1.482-.871,2.789-1.714,4.183-2.44a94.347,94.347,0,0,1,34.569-10.545c10.313-1.075,20.48.029,30.618,2.179,6.71,1.423,13.363,1.307,19.754-1.569a23.508,23.508,0,0,0,9.877-8.482A23.417,23.417,0,0,1,164.35.029C164.931,0,165.512,0,166.093,0Z" transform="translate(0)"/>
    <path id="Path_19" data-name="Path 19" d="M256.8,393.354c2.76-2.092,5.548-4.183,8.279-6.333,5.868-4.648,11.765-9.267,17.546-14a228.323,228.323,0,0,0,20.683-19.7,215.678,215.678,0,0,0,21.961-27.307,184.674,184.674,0,0,0,14.786-26.232,19.4,19.4,0,0,1,.988-1.685,91.882,91.882,0,0,1,.813,23.879c-.116.058-.2.145-.261.116-2.295-.813-2.295-.813-3.515,1.278-.9,1.482-1.8,2.992-2.789,4.648,1.394.668,2.731,1.307,4.1,1.917a1.259,1.259,0,0,1,.871,1.772c-1.075,3.486-2.033,7.03-3.079,10.6-2.9-1.278-5.49-2.469-8.1-3.573-.349-.145-1.075-.2-1.249.029-1.54,1.917-2.992,3.893-4.561,6.013,3.544,1.627,6.885,3.166,10.458,4.793-.813,1.453-1.569,2.818-2.324,4.183-.145.262-.32.494-.465.726-1.685,2.818-1.685,2.818-4.793,1.511-2.585-1.1-5.142-2.237-7.727-3.254a1.449,1.449,0,0,0-1.336.232c-1.627,1.772-3.2,3.6-5,5.694,4.154,1.8,8.1,3.544,12.4,5.4-2.731,2.818-5.258,5.461-7.872,8.047-.2.2-.9.116-1.278-.029-3.079-1.249-6.188-2.5-9.238-3.835a1.745,1.745,0,0,0-2.266.436c-1.6,1.656-3.312,3.225-5.171,5.026,3.573,1.6,6.856,3.05,10.458,4.648-1.685,1.075-3.108,2.063-4.561,2.9q-3.965,2.266-8.018,4.357a2.562,2.562,0,0,1-1.859.029c-1.772-.639-3.457-1.481-5.229-2.179a1.5,1.5,0,0,0-1.278.058c-2.033,1.627-3.98,3.341-6.129,5.142.871.552,1.569.988,2.295,1.423v.378c-3.544.668-7.059,1.365-10.6,2-2.121.378-4.3.61-6.449.9C263.772,393.354,260.286,393.354,256.8,393.354Z" transform="translate(-182.213 -211.503)"/>
    <path id="Path_20" data-name="Path 20" d="M113.7,275.9c2.556-1.685,5.113-3.37,7.7-5.055a292.05,292.05,0,0,0,28.759-21.555A264.293,264.293,0,0,0,176.418,223.9a203.683,203.683,0,0,0,29.195-41.163,145.03,145.03,0,0,0,10.429-24.663c.349-1.1.755-2.179,1.278-3.573,1.743,1.946,3.428,3.689,4.938,5.578,2.585,3.137,2.44,3.137,1.22,7.03a157.275,157.275,0,0,1-14.031,31.257,192.29,192.29,0,0,1-14.873,21.584,218.327,218.327,0,0,1-23.53,25.622q-8.889,8.236-18.3,15.832c-5.9,4.764-12.056,9.18-18.185,13.624-3.283,2.382-6.769,4.5-10.167,6.681a1.686,1.686,0,0,1-1.423.174c-3.05-1.83-6.071-3.776-9.093-5.665C113.787,276.218,113.787,276.1,113.7,275.9Z" transform="translate(-80.683 -109.618)"/>
    <path id="Path_21" data-name="Path 21" d="M65.6,238.475c2.673-1.743,4.793-3.05,6.827-4.474,6.652-4.648,13.45-9.122,19.87-14.06,6.74-5.2,13.247-10.69,19.608-16.326,4.793-4.27,9.412-8.773,13.77-13.479,5.432-5.9,10.719-11.939,15.658-18.243a177.842,177.842,0,0,0,18.185-28.236,163.778,163.778,0,0,0,10.051-23.734c.145-.407.32-.784.581-1.423,2,1.452,3.951,2.818,5.781,4.27a1.468,1.468,0,0,1,.232,1.278,146.686,146.686,0,0,1-9.354,24.634,142.715,142.715,0,0,1-13.45,22.833c-4.967,6.769-10.08,13.479-15.658,19.754-6.159,6.914-12.753,13.508-19.521,19.812-5.752,5.374-11.968,10.254-18.1,15.193A276.328,276.328,0,0,1,73.647,244.6c-.552.349-.9.581-1.482.029C70.074,242.571,67.953,240.683,65.6,238.475Z" transform="translate(-46.556 -84.076)"/>
    <path id="Path_22" data-name="Path 22" d="M276.091,214c1.685,3.806,3.341,7.466,4.938,11.184a2.2,2.2,0,0,1-.2,1.394,140.923,140.923,0,0,1-13.857,27.975c-4.387,6.681-8.831,13.421-13.857,19.638a252.937,252.937,0,0,1-17.953,19.87c-6.449,6.449-13.276,12.52-20.248,18.417-5.665,4.793-11.794,9.063-17.749,13.508-2.44,1.8-5,3.457-7.524,5.142a2.143,2.143,0,0,1-1.423.465c-3.4-.9-6.739-1.859-10.516-2.934,1.54-1.075,2.76-1.917,3.951-2.789,6.159-4.386,12.52-8.57,18.476-13.276q10.24-8.061,19.841-16.936c5.781-5.316,11.329-10.952,16.645-16.733a176.362,176.362,0,0,0,12.027-14.67c4.183-5.665,8.221-11.475,11.881-17.488a172.774,172.774,0,0,0,8.657-16.384C271.646,225.126,273.709,219.694,276.091,214Z" transform="translate(-126.092 -151.834)"/>
  </g>
</svg>
