<?xml version="1.0" encoding="utf-8"?>
<!-- Generator: Adobe Illustrator 22.0.1, SVG Export Plug-In . SVG Version: 6.00 Build 0)  -->
<svg version="1.1" id="Layer_1" xmlns="http://www.w3.org/2000/svg" xmlns:xlink="http://www.w3.org/1999/xlink" x="0px" y="0px"
	 viewBox="0 0 133.9 123.1" style="enable-background:new 0 0 133.9 123.1;" xml:space="preserve">
<style type="text/css">
	.st0{fill:#121E44;}
	.st1{enable-background:new    ;}
	.st2{fill:#D2157F;}
	.st3{fill:#231F20;}
</style>
<title>Asset 8</title>
<g>
	<g id="Layer_2_1_">
		<g id="Layer_1-2">
			
				<image style="overflow:visible;opacity:0.3;enable-background:new    ;" width="558" height="513" xlink:href="160D38D86AFCBC43.png"  transform="matrix(0.24 0 0 0.24 0 0)">
			</image>
			<path class="st0" d="M79.9,25.6l-15.2-9.7l-0.6,16.3l-3.7,1.5l0.9-21.9l1.8-0.8l20.5,13.1L79.9,25.6z"/>
			<path class="st0" d="M51.9,39.8l-15.2-9.7l-0.6,16.3L32.4,48l0.9-22l1.8-0.8l20.5,13L51.9,39.8z"/>
			<g class="st1">
				<path class="st0" d="M86,85c-2.2-2.7-4.1-4.1-5.9-4.3s-3.2,0.1-4.4,0.8l-12.3,7.2c-1.3,0.8-3,0.9-5.1,0.3
					c-2.1-0.5-3.8-1.7-5.1-3.4l-2-2.6l1.3-0.8l1.6,2.2c0.7,1,1.7,1.7,2.8,2.1s2.2,0.3,3.3-0.3l13.1-7.7c1.4-0.9,3.2-1.2,5.3-1
					c2.1,0.2,3.6,1,4.6,2.3l0.1,0c-1-1.3-1.2-2.9-0.6-4.7c0.5-1.5,1.3-2.7,2.4-3.5c0.2-0.1,0.4-0.3,0.6-0.4l13.2-7.7
					c0.1-0.1,0.2-0.1,0.4-0.2c0.8-0.6,1.2-1.3,1.2-2.3c0-1.1-0.3-2.1-1-3.1l-1.6-2.2l1.3-0.8l2,2.6c1.3,1.7,1.8,3.6,1.6,5.5
					c-0.2,1.7-0.9,3-1.9,3.8c-0.1,0.1-0.3,0.2-0.4,0.2L88,74.3c-0.2,0.1-0.3,0.2-0.5,0.3c-0.9,0.7-1.6,1.7-2.1,3
					c-0.5,1.5,0.2,3.7,2.2,6.5L86,85z"/>
			</g>
			<g class="st1">
				<path class="st2" d="M13.6,71.9l0.4-0.2c0.4-0.2,1.4,0.9,3,3.5c2.2,2.9,3.8,4.8,4.9,5.6c0.3-0.1-0.2-2.7-1.3-7.7
					c-0.3-1.4-0.2-2.2,0.2-2.4l0.1-0.1c0.4-0.2,1.6,1,3.5,3.8c2.6,2.3,4.3,3.3,4.9,3.1c0.1-1.1-0.7-3.6-2.5-7.5
					c0.1,0-0.2-0.6-0.8-1.6c-0.1-0.2-0.5-0.8-1-1.6c0.1-0.2,0.3-0.4,0.4-0.5c0.4-0.2,0.9,0.1,1.5,1.1l0.2,0.4
					c3.2,6.6,4.2,10.2,3,10.9c-1.3,0.7-3.7-0.7-7.1-4.1l-1-1.4l-0.1,0.1c1.4,5.4,1.7,8.3,1.1,8.6L22.5,82c-1.1,0.6-3.9-2.3-8.4-8.6
					c-0.3,0.1-0.5,0.1-0.7-0.3C13.4,72.4,13.4,72,13.6,71.9z"/>
				<path class="st2" d="M25.9,64.4L25.9,64.4c2.3-0.6,4.3-1.5,6.3-2.5l1.3-0.7c0.3-0.2,0.6-0.2,0.8,0l0.2,0.3
					c0,0.3-0.1,0.5-0.4,0.7l-1.3,0.7c-2.6,1.3-4.5,2.1-5.5,2.4l2.3,4.1c0.1,0.1,0.2,0.1,0.4,0c2.1-1.7,3.6-3.1,4.5-4.2l0.2-0.1
					c0.2,0,0.4,0.1,0.6,0.4c0.3,0.5-1.3,2.1-4.7,4.9l0,0.2c1.3,2.4,2.7,3.5,4.2,3.3c0.1,0,0.3,0,0.4-0.1l0.1-0.1
					c1-0.6,2-2.2,2.9-4.9l0.3-0.1c0.1-0.1,0.3,0,0.6,0.2L39,69c-0.8,3-2,4.9-3.4,5.7c-1.1,0.6-2.4,0.4-3.9-0.8
					c-1.4-1.3-2.7-3.1-3.9-5.4l-2-3.6C25.7,64.8,25.8,64.7,25.9,64.4z"/>
				<path class="st2" d="M35.8,58.9c2.4-0.9,4-0.6,4.9,1c0.4,0.8,0.6,2.3,0.5,4.6c2.7-0.4,4.3,0,4.9,1.1c0.7,1.2,0.3,2.5-1.1,4
					l-0.3,0.2c-0.8,0.4-1.5,0.3-2.2-0.2c-0.4,0.2-1.2-0.5-2.5-2.1c-2.2-2.5-3.8-4.5-4.8-6l-0.3-0.5C34.5,60.1,34.8,59.4,35.8,58.9
					L35.8,58.9z M35.7,60.5l0.6,1c0-0.6,0.2-1,0.5-1.1c0.3-0.1,0.5,0,0.7,0.3c-0.2,0.5,0.1,1.2,0.6,2.3l0.5,1
					c0.8,1.5,1.9,2.8,3.2,4.1c0.5-0.3,0.8-0.3,1,0l0.2,0.5c0.2,0.4,0.6,0.5,1.2,0.2c1.1-1,1.4-2,0.9-2.9c-0.5-0.6-2-0.7-4.4-0.4
					c-0.3-0.3-0.5-0.5-0.5-0.6c0-2.4,0-3.9-0.3-4.3l-0.2-0.3c-0.5-1-1.6-1.2-3.2-0.6l-0.4,0.2C35.8,60,35.7,60.3,35.7,60.5z"/>
			</g>
			<g class="st1">
				<path class="st0" d="M42,55.5c0.2-0.1,0.5-0.1,1,0.1c1.2-0.3,3,0,5.2,1.1c1.6,0.9,2.8,2,3.4,3.2c0.8,1.5,0.6,3.5-0.6,5.9
					c-0.3,0.4-0.7,0.7-1,0.9c-0.5,0.3-1.1-0.1-1.8-1.1c-3-3.1-4.9-5.5-5.9-7.3l-0.7-1.2C41.3,56.4,41.4,55.8,42,55.5z M43.1,56.7
					l0.3,0.6c2.5,3.7,4.6,6.4,6.4,8.3c0.8-1,1.2-2.1,1.2-3.1c0-1-0.1-1.8-0.4-2.3c-1-1.8-3-3-6-3.7c-0.7-0.1-1.1,0-1.3,0.1
					L43.1,56.7z"/>
				<path class="st0" d="M48,52.1L48,52.1c2.3-0.6,4.3-1.5,6.3-2.5l1.3-0.7c0.3-0.2,0.6-0.2,0.8,0l0.2,0.3c0,0.3-0.1,0.5-0.4,0.7
					l-1.3,0.7c-2.6,1.3-4.5,2.1-5.5,2.4l2.3,4.1c0.1,0.1,0.2,0.1,0.4,0c2.1-1.7,3.6-3.1,4.5-4.2l0.2-0.1c0.2,0,0.4,0.1,0.6,0.4
					c0.3,0.5-1.3,2.1-4.7,4.9l0,0.2c1.3,2.4,2.7,3.5,4.2,3.3c0.1,0,0.3,0,0.4-0.1l0.1-0.1c1-0.6,2-2.2,2.9-4.9l0.3-0.1
					c0.1-0.1,0.3,0,0.6,0.2l0.1,0.3c-0.8,3-2,4.9-3.4,5.7c-1.1,0.6-2.4,0.4-3.9-0.8c-1.4-1.3-2.7-3.1-3.9-5.4l-2-3.6
					C47.8,52.6,47.9,52.4,48,52.1z"/>
				<path class="st0" d="M56.9,47.2c0.4-0.2,1.3,0.5,2.7,2c3.3,2.2,6.3,3.9,8.8,5.2c-2.4-6.1-3.6-9.7-3.6-10.8
					c-0.1-0.2,0-0.3,0.3-0.6c0.3,0,0.5,0,0.6,0.1l0.2,0.3c0.8,2.6,2,6.2,3.9,10.9c0.1,0.8,0.1,1.3-0.1,1.5L69.2,56
					c-1.4-0.4-4.6-2.1-9.5-5.3c-1-0.7-2.1-1.6-3.1-2.7C56.5,47.6,56.6,47.3,56.9,47.2z"/>
			</g>
			<g class="st1">
				<path class="st2" d="M68.1,40.9l0.3-0.2c0.8-0.4,1.7-0.3,2.7,0.3c0.1,0.3,0,0.6-0.3,0.7l-1.7-0.2l-0.4,0.2c-0.9,0.9-1,2-0.3,3.3
					c1,1.8,3.3,2.3,7,1.5c1.5-0.1,2.4,0.2,2.7,0.9l0,0.1c0.6,1-0.1,2.6-2.1,4.6c-0.9,0.2-1.4,0-1.7-0.5l0-0.1c0-0.1,0-0.3,0.2-0.5
					c0.2-0.1,0.6-0.1,1.2,0.1c1.3-1.5,1.8-2.6,1.5-3.2c-0.2-0.3-1.6-0.2-4.3,0.1c-2.4,0-3.9-0.5-4.4-1.5c-0.1,0.1-0.4-0.3-1-1.2
					c-0.7-2-0.7-3.2-0.1-3.6C67.4,41.5,67.7,41.2,68.1,40.9z"/>
				<path class="st2" d="M78.3,35.7l0.3-0.1c0.6-0.4,2.9,2,6.8,7l3.1,3.5l0,0.1c0,0.1,0,0.3-0.2,0.6c-0.4,0.2-1.4-0.6-2.9-2.7
					c-1.6-1.8-2.5-2.9-2.7-3.3l-0.1,0c-0.1,0.1-0.2,0.2-0.3,0.3L82,41.2c-0.8,0.4-2.3,0.9-4.5,1.4l0.3,0.5c0.6,1,1.8,2.7,3.8,5.2
					l0.2,0.3c0,0.1,0,0.2-0.1,0.4l-0.3,0.2c-0.2,0.1-1.1-0.8-2.7-2.6c-0.8-1.1-1.7-2.3-2.6-3.6c0-0.3,0-0.5,0-0.6l-0.4-0.5l-0.9-1.6
					c0-0.1,0-0.3,0.1-0.5l0.3-0.1c0.1,0,0.3,0,0.5,0.1l1,1.8c0.1,0.2,1.2,0,3.4-0.7c0.8-0.3,1.3-0.5,1.5-0.6l0-0.8
					c-1.6-2-2.5-2.9-2.8-2.7l-0.5-0.5C78.2,35.9,78.2,35.7,78.3,35.7z"/>
				<path class="st2" d="M82.1,33.2L82.1,33.2c2.3-0.6,4.3-1.5,6.3-2.5l1.3-0.7c0.3-0.2,0.6-0.2,0.8,0l0.2,0.3
					c0,0.3-0.1,0.5-0.4,0.7l-1.3,0.7c-2.6,1.3-4.5,2.1-5.5,2.4l2.3,4.1c0.1,0.1,0.2,0.1,0.4,0c2.1-1.7,3.6-3.1,4.5-4.2l0.2-0.1
					c0.2,0,0.4,0.1,0.6,0.4c0.3,0.5-1.3,2.1-4.7,4.9l0,0.2c1.3,2.4,2.7,3.5,4.2,3.3c0.1,0,0.3,0,0.4-0.1l0.1-0.1
					c1-0.6,2-2.2,2.9-4.9l0.3-0.1c0.1-0.1,0.3,0,0.6,0.2l0.1,0.3c-0.9,3-2,4.9-3.4,5.7c-1.1,0.6-2.4,0.4-3.9-0.8
					c-1.4-1.3-2.7-3.1-3.9-5.4l-2-3.6C81.8,33.6,81.9,33.4,82.1,33.2z"/>
				<path class="st2" d="M91.9,27.7c0.4-0.1,0.7,0.1,0.9,0.4c0,0.3,1.4,3.7,4.1,10l0.3,0.5l0.4,0.5l0.5-0.3l3.6-4.8
					c0.3-0.2,0.6-0.2,0.8,0l0.1,0.2c0,0.2-1,1.7-3,4.2c0.1,0.2-0.2,0.6-1,1.2l-0.3,0.2c-0.8,0.4-1.4,0.1-2-0.9l-0.2-0.4L92,29.2
					l-0.3-0.5C91.5,28.4,91.6,28.1,91.9,27.7z"/>
				<path class="st2" d="M98.9,23.8c0.4-0.1,0.7,0.1,0.9,0.4c0,0.3,1.4,3.7,4.1,10l0.3,0.5l0.4,0.5l0.5-0.3l3.6-4.8
					c0.3-0.2,0.5-0.2,0.8,0l0.1,0.2c0,0.2-1,1.7-3,4.2c0.1,0.2-0.2,0.6-1,1.2l-0.3,0.2c-0.8,0.4-1.4,0.1-2-0.9l-0.2-0.4L99,25.3
					l-0.3-0.5C98.6,24.5,98.6,24.2,98.9,23.8z"/>
				<path class="st2" d="M105.2,20.2c0.3-0.1,0.5,0,0.7,0.3c0,0.2,0,0.4,0.1,0.6c0.9,1.6,2.5,2.5,4.6,2.7l0.6-0.2l0.6-0.4
					c0.8-0.4,0.6-2.3-0.6-5.7l0.2-0.5l0.2-0.1c0.1,0,0.3,0,0.5,0.2c0.7,2.1,1.3,4.8,1.9,8.2c0.6,3.6,0.2,5.8-1.2,6.6l-0.2,0.1
					c-1.2,0.4-2,0.2-2.4-0.6c0-0.3,0-0.5,0.1-0.6l0.2-0.1c0.1-0.1,0.4,0.1,0.8,0.5c0.3,0.1,0.6,0.1,0.8,0l0.2-0.1
					c1.1-0.6,1.2-3,0.4-7.3l-0.1,0l-0.4,0.3l-0.6,0.3c-1.5,0.8-3.3,0.3-5.6-1.5c-0.6-0.7-1-1.2-1.1-1.4l-0.1-0.2
					C104.8,20.8,104.9,20.4,105.2,20.2z"/>
			</g>
			<g class="st1">
				<path class="st3" d="M52.9,71.6l1,4.8l-0.2,0.1l-3.5-3.2l0,0l0.9,4.6l-0.2,0.1l-3.5-3.4l0.2-0.1l3.4,3.3l0,0l-0.9-4.6l0.2-0.1
					l3.4,3.2l0,0l-0.9-4.6L52.9,71.6z"/>
				<path class="st3" d="M54.8,74.3c0.2,0.2,0.4,0.4,0.6,0.5c0.2,0.1,0.5,0.2,0.7,0.1c0.3,0,0.5-0.1,0.8-0.3
					c0.4-0.2,0.7-0.6,0.9-0.9c0.2-0.4,0.1-0.8,0-1.3l0.2-0.1c0.2,0.5,0.2,1,0.1,1.4c-0.2,0.4-0.5,0.8-1,1c-0.3,0.2-0.6,0.3-0.9,0.3
					s-0.6,0-0.8-0.1c-0.3-0.1-0.5-0.3-0.7-0.5s-0.4-0.5-0.6-0.8c-0.2-0.3-0.3-0.7-0.4-1c0-0.3,0-0.6,0-0.9c0.1-0.3,0.2-0.5,0.3-0.7
					s0.4-0.4,0.6-0.5c0.3-0.2,0.6-0.3,0.9-0.3s0.6,0,0.8,0.2c0.3,0.1,0.5,0.3,0.7,0.5c0.2,0.2,0.4,0.5,0.5,0.8l-3.4,1.9
					C54.5,73.8,54.6,74.1,54.8,74.3z M57,70.9c-0.2-0.2-0.4-0.3-0.6-0.4c-0.2-0.1-0.5-0.1-0.7-0.1c-0.3,0-0.5,0.1-0.8,0.2
					c-0.2,0.1-0.4,0.3-0.6,0.5c-0.1,0.2-0.2,0.4-0.3,0.7c-0.1,0.2-0.1,0.5,0,0.8s0.1,0.6,0.3,0.9l3.3-1.8
					C57.3,71.3,57.2,71.1,57,70.9z"/>
				<path class="st3" d="M58,70.3c-0.1-0.4-0.1-0.8,0.1-1.2s0.4-0.7,0.9-0.9c0.3-0.2,0.6-0.2,0.8-0.2c0.3,0,0.6,0.1,0.8,0.2
					s0.5,0.3,0.7,0.5s0.4,0.5,0.6,0.8c0.2,0.3,0.3,0.6,0.4,0.9c0.1,0.3,0.1,0.6,0,0.9s-0.1,0.5-0.3,0.7c-0.2,0.2-0.4,0.4-0.6,0.6
					c-0.4,0.2-0.8,0.3-1.2,0.2c-0.4-0.1-0.8-0.3-1.1-0.6l0,0l0.6,1.1l-0.2,0.1l-3.2-5.7l0.2-0.1L58,70.3L58,70.3z M59,71.9
					c0.2,0.2,0.4,0.3,0.7,0.5s0.5,0.1,0.8,0.1c0.3,0,0.5-0.1,0.8-0.2c0.3-0.1,0.5-0.3,0.6-0.5c0.1-0.2,0.2-0.5,0.3-0.7
					c0-0.3,0-0.5-0.1-0.8c-0.1-0.3-0.2-0.5-0.3-0.8c-0.1-0.2-0.3-0.5-0.5-0.7c-0.2-0.2-0.4-0.4-0.6-0.5c-0.2-0.1-0.5-0.2-0.7-0.2
					c-0.3,0-0.5,0.1-0.8,0.2c-0.5,0.3-0.8,0.7-0.9,1.2c-0.1,0.5,0,1.1,0.4,1.7C58.7,71.4,58.8,71.7,59,71.9z"/>
				<path class="st3" d="M66.2,62.2l3.2,5.7l-0.2,0.1l-0.6-1.1l0,0c0.1,0.4,0.1,0.8-0.1,1.2c-0.2,0.4-0.4,0.7-0.9,0.9
					c-0.3,0.2-0.5,0.2-0.8,0.2c-0.3,0-0.5,0-0.8-0.1c-0.3-0.1-0.5-0.3-0.7-0.5s-0.4-0.5-0.6-0.8c-0.2-0.3-0.3-0.6-0.3-0.9
					c-0.1-0.3-0.1-0.6,0-0.9c0-0.3,0.1-0.5,0.3-0.8c0.2-0.2,0.4-0.4,0.7-0.6c0.4-0.2,0.9-0.3,1.3-0.3c0.4,0.1,0.8,0.3,1.1,0.6l0,0
					L66,62.2L66.2,62.2z M66.8,64.7c-0.5-0.2-1-0.1-1.5,0.2c-0.3,0.2-0.5,0.3-0.6,0.6c-0.1,0.2-0.2,0.5-0.2,0.7c0,0.3,0,0.5,0.1,0.8
					c0.1,0.3,0.2,0.5,0.3,0.8c0.1,0.3,0.3,0.5,0.5,0.7c0.2,0.2,0.4,0.4,0.6,0.5c0.2,0.1,0.5,0.2,0.7,0.2c0.3,0,0.5-0.1,0.8-0.2
					c0.3-0.1,0.5-0.3,0.6-0.6c0.1-0.2,0.2-0.5,0.3-0.7c0-0.3,0-0.5,0-0.8c-0.1-0.3-0.2-0.6-0.3-0.8C67.7,65.2,67.2,64.8,66.8,64.7z"
					/>
				<path class="st3" d="M69.6,66.1c0.2,0.2,0.4,0.4,0.6,0.5c0.2,0.1,0.5,0.2,0.7,0.1c0.3,0,0.5-0.1,0.8-0.3
					c0.4-0.2,0.7-0.5,0.9-0.9c0.2-0.4,0.1-0.8,0-1.3l0.2-0.1c0.2,0.5,0.2,1,0.1,1.4c-0.2,0.4-0.5,0.8-1,1c-0.3,0.2-0.6,0.3-0.9,0.3
					c-0.3,0-0.6,0-0.8-0.1c-0.3-0.1-0.5-0.3-0.7-0.5s-0.4-0.5-0.6-0.8c-0.2-0.3-0.3-0.7-0.4-1s0-0.6,0-0.9c0.1-0.3,0.2-0.5,0.3-0.7
					c0.2-0.2,0.4-0.4,0.6-0.5c0.3-0.2,0.6-0.3,0.9-0.3c0.3,0,0.6,0,0.8,0.2c0.3,0.1,0.5,0.3,0.7,0.5c0.2,0.2,0.4,0.5,0.5,0.8
					l-3.4,1.9C69.2,65.6,69.4,65.9,69.6,66.1z M71.7,62.7c-0.2-0.2-0.4-0.3-0.6-0.4c-0.2-0.1-0.5-0.1-0.7-0.1
					c-0.3,0-0.5,0.1-0.8,0.2c-0.2,0.1-0.4,0.3-0.6,0.5c-0.1,0.2-0.2,0.4-0.3,0.7c-0.1,0.2-0.1,0.5,0,0.8c0,0.3,0.1,0.6,0.3,0.9
					l3.3-1.8C72.1,63.1,71.9,62.9,71.7,62.7z"/>
				<path class="st3" d="M74.9,59.4l0.7,5l-0.2,0.1l-4-3.2l0.2-0.1l3.8,3.1l0,0l-0.7-4.7L74.9,59.4z"/>
				<path class="st3" d="M76.8,62c0.2,0.2,0.4,0.4,0.6,0.5s0.5,0.2,0.7,0.1s0.5-0.1,0.8-0.3c0.4-0.2,0.7-0.6,0.9-0.9
					c0.2-0.4,0.1-0.8,0-1.3l0.2-0.1c0.2,0.5,0.2,1,0.1,1.4c-0.2,0.4-0.5,0.8-1,1c-0.3,0.2-0.6,0.3-0.9,0.3c-0.3,0-0.6,0-0.8-0.1
					s-0.5-0.3-0.7-0.5c-0.2-0.2-0.4-0.5-0.6-0.8c-0.2-0.3-0.3-0.7-0.4-1c0-0.3,0-0.6,0-0.9c0.1-0.3,0.2-0.5,0.3-0.7
					c0.2-0.2,0.4-0.4,0.6-0.5c0.3-0.2,0.6-0.3,0.9-0.3s0.6,0,0.8,0.2c0.3,0.1,0.5,0.3,0.7,0.5s0.4,0.5,0.5,0.8l-3.4,1.9
					C76.4,61.6,76.6,61.8,76.8,62z M79,58.7c-0.2-0.2-0.4-0.3-0.6-0.4c-0.2-0.1-0.5-0.1-0.7-0.1c-0.3,0-0.5,0.1-0.8,0.2
					c-0.2,0.1-0.4,0.3-0.6,0.5c-0.1,0.2-0.2,0.4-0.3,0.7c-0.1,0.2-0.1,0.5,0,0.8s0.1,0.6,0.3,0.9l3.3-1.8
					C79.3,59.1,79.1,58.9,79,58.7z"/>
				<path class="st3" d="M78.5,55.3l3.2,5.7l-0.2,0.1l-3.2-5.7L78.5,55.3z"/>
				<path class="st3" d="M80.8,57.7c-0.1-0.3-0.1-0.6,0-0.9c0-0.3,0.2-0.5,0.3-0.8c0.2-0.2,0.4-0.5,0.7-0.6c0.3-0.2,0.6-0.3,0.9-0.3
					c0.3,0,0.6,0,0.8,0.2c0.3,0.1,0.5,0.3,0.7,0.5c0.2,0.2,0.4,0.5,0.6,0.7c0.2,0.3,0.3,0.6,0.3,0.9c0.1,0.3,0.1,0.6,0,0.9
					c0,0.3-0.2,0.5-0.3,0.8c-0.2,0.2-0.4,0.5-0.7,0.6c-0.3,0.2-0.6,0.3-0.9,0.3c-0.3,0-0.6,0-0.8-0.1c-0.3-0.1-0.5-0.3-0.7-0.5
					c-0.2-0.2-0.4-0.5-0.6-0.7C81,58.3,80.9,58,80.8,57.7z M81.8,59.2c0.2,0.2,0.4,0.4,0.7,0.5c0.2,0.1,0.5,0.2,0.8,0.1
					c0.3,0,0.5-0.1,0.8-0.2c0.3-0.2,0.5-0.3,0.6-0.6c0.1-0.2,0.2-0.5,0.3-0.7c0-0.3,0-0.5,0-0.8s-0.2-0.5-0.3-0.8
					c-0.1-0.3-0.3-0.5-0.5-0.7c-0.2-0.2-0.4-0.4-0.7-0.5c-0.2-0.1-0.5-0.2-0.8-0.1c-0.3,0-0.5,0.1-0.8,0.2c-0.3,0.2-0.5,0.3-0.6,0.6
					c-0.1,0.2-0.2,0.5-0.3,0.7c0,0.3,0,0.5,0,0.8c0.1,0.3,0.2,0.5,0.3,0.8C81.4,58.8,81.6,59,81.8,59.2z"/>
				<path class="st3" d="M87.4,59.6l-3.1-5.5l0.2-0.1l0.6,1.1l0,0c0-0.2-0.1-0.4,0-0.6c0-0.2,0.1-0.4,0.1-0.6
					c0.1-0.2,0.2-0.4,0.3-0.5c0.1-0.2,0.3-0.3,0.5-0.4c0.3-0.2,0.5-0.2,0.8-0.2c0.3,0,0.5,0,0.8,0.1c0.3,0.1,0.5,0.3,0.7,0.5
					c0.2,0.2,0.4,0.5,0.6,0.8c0.2,0.3,0.3,0.6,0.3,0.9c0.1,0.3,0.1,0.6,0,0.9s-0.1,0.5-0.3,0.8s-0.4,0.4-0.7,0.6
					c-0.4,0.2-0.9,0.3-1.3,0.3c-0.4-0.1-0.8-0.3-1.1-0.6l0,0l1.4,2.5L87.4,59.6z M89,56.6c0.1-0.2,0.2-0.5,0.2-0.7
					c0-0.3,0-0.5-0.1-0.8c-0.1-0.3-0.2-0.5-0.3-0.8c-0.1-0.3-0.3-0.5-0.5-0.7c-0.2-0.2-0.4-0.4-0.6-0.5c-0.2-0.1-0.5-0.2-0.7-0.2
					c-0.3,0-0.5,0.1-0.8,0.2c-0.3,0.1-0.5,0.3-0.6,0.5c-0.1,0.2-0.2,0.5-0.3,0.7c0,0.3,0,0.5,0,0.8c0.1,0.3,0.2,0.6,0.3,0.8
					c0.4,0.6,0.8,1.1,1.3,1.2c0.5,0.2,1,0.1,1.5-0.2C88.7,57,88.9,56.8,89,56.6z"/>
				<path class="st3" d="M90.2,54.6c0.2,0.2,0.4,0.4,0.6,0.5c0.2,0.1,0.5,0.2,0.7,0.1s0.5-0.1,0.8-0.3c0.4-0.2,0.7-0.6,0.9-0.9
					c0.2-0.4,0.1-0.8,0-1.3l0.2-0.1c0.2,0.5,0.2,1,0.1,1.4c-0.2,0.4-0.5,0.8-1,1c-0.3,0.2-0.6,0.3-0.9,0.3c-0.3,0-0.6,0-0.8-0.1
					c-0.3-0.1-0.5-0.3-0.7-0.5c-0.2-0.2-0.4-0.5-0.6-0.8c-0.2-0.3-0.3-0.7-0.4-1c0-0.3,0-0.6,0-0.9c0.1-0.3,0.2-0.5,0.3-0.7
					c0.2-0.2,0.4-0.4,0.6-0.5c0.3-0.2,0.6-0.3,0.9-0.3c0.3,0,0.6,0,0.8,0.2c0.3,0.1,0.5,0.3,0.7,0.5s0.4,0.5,0.5,0.8l-3.4,1.9
					C89.9,54.1,90,54.4,90.2,54.6z M92.4,51.2c-0.2-0.2-0.4-0.3-0.6-0.4c-0.2-0.1-0.5-0.1-0.7-0.1c-0.3,0-0.5,0.1-0.8,0.2
					c-0.2,0.1-0.4,0.3-0.6,0.5c-0.1,0.2-0.2,0.4-0.3,0.7c-0.1,0.2-0.1,0.5,0,0.8c0,0.3,0.1,0.6,0.3,0.9l3.3-1.8
					C92.7,51.6,92.6,51.4,92.4,51.2z"/>
				<path class="st3" d="M94.9,53.6l-2.3-4.1l0.2-0.1l0.6,1l0,0c0-0.2-0.1-0.4-0.1-0.5c0-0.2,0-0.4,0.1-0.5c0.1-0.2,0.2-0.3,0.3-0.5
					c0.2-0.2,0.4-0.3,0.6-0.4l0.1,0.2c-0.3,0.1-0.5,0.3-0.7,0.5c-0.2,0.2-0.3,0.4-0.3,0.7c0,0.2,0,0.5,0,0.7
					c0.1,0.2,0.1,0.5,0.3,0.7l1.3,2.3L94.9,53.6z"/>
			</g>
		</g>
	</g>
</g>
</svg>
