<?xml version="1.0" encoding="utf-8"?>
<!-- Generator: Adobe Illustrator 22.0.1, SVG Export Plug-In . SVG Version: 6.00 Build 0)  -->
<svg version="1.1" id="Layer_1" xmlns="http://www.w3.org/2000/svg" xmlns:xlink="http://www.w3.org/1999/xlink" x="0px" y="0px"
	 viewBox="0 0 169.7 146.5" style="enable-background:new 0 0 169.7 146.5;" xml:space="preserve">
<style type="text/css">
	.st0{fill:#FFFFFF;}
	.st1{enable-background:new    ;}
</style>
<title>Asset 4</title>
<g id="Layer_2_1_">
	<g id="Layer_2-2">
		<path class="st0" d="M110.6,25.1L90.2,7.5l-4.4,23.9L80,32.9l6-32.2L88.9,0l27.4,23.6L110.6,25.1z"/>
		<path class="st0" d="M66.2,40.1L45.8,22.5l-4.4,23.9l-5.8,1.5l6-32.2l2.9-0.7L72,38.6L66.2,40.1z"/>
		<g class="st1">
			<path class="st0" d="M106.9,114c-2.6-4.5-5.2-7-7.8-7.5s-4.8-0.5-6.7,0.3l-19.6,8.1c-2.1,0.8-4.6,0.6-7.6-0.6s-5.3-3.3-6.9-6.1
				l-2.4-4.3L58,103l2,3.6c0.9,1.6,2.1,2.8,3.7,3.7c1.6,0.8,3.2,0.9,4.9,0.3l21-8.7c2.3-1,5-1.1,8-0.4c3,0.7,5.1,2.1,6.3,4.3l0.1,0
				c-1.2-2.2-1.1-4.5,0.1-7c1-2.1,2.5-3.6,4.3-4.7c0.3-0.2,0.6-0.3,1-0.5l21-8.6c0.2-0.1,0.4-0.2,0.6-0.3c1.3-0.7,2-1.7,2.2-3.1
				c0.3-1.6,0-3.2-0.9-4.8l-2-3.6l2.1-0.9l2.4,4.3c1.6,2.8,2,5.7,1.2,8.5c-0.7,2.5-1.9,4.2-3.6,5.2c-0.2,0.1-0.4,0.2-0.6,0.3
				L112,98.7c-0.3,0.1-0.5,0.2-0.7,0.4c-1.5,0.8-2.7,2.1-3.7,3.9c-1.1,2.1-0.5,5.5,1.9,10L106.9,114z"/>
		</g>
		<g class="st1">
			<path class="st0" d="M3,79.2l0.6-0.2c0.6-0.2,1.8,1.7,3.6,5.8c2.6,4.7,4.6,7.8,6,9.3c0.4-0.2,0.3-4-0.3-11.6
				c-0.2-2.1,0.1-3.2,0.8-3.5l0.1-0.1c0.6-0.2,2.1,1.9,4.4,6.3c3.4,3.9,5.6,5.8,6.6,5.7c0.4-1.6-0.3-5.5-2.1-11.7
				c0.1,0-0.2-0.9-0.8-2.6c-0.1-0.3-0.5-1.2-1.2-2.6c0.3-0.3,0.5-0.5,0.7-0.6c0.7-0.3,1.3,0.4,2,1.9l0.2,0.6c3.3,10.4,4,16,2.1,16.7
				c-2,0.8-5.2-1.7-9.6-7.6l-1.2-2.2l-0.1,0.1c0.9,8.2,0.8,12.5-0.2,12.9L14,96c-1.8,0.7-5.3-4.2-10.5-14.5c-0.4,0.2-0.7,0-0.9-0.5
				C2.6,79.9,2.7,79.3,3,79.2z"/>
			<path class="st0" d="M22.8,70.8l0.1-0.1c3.3-0.4,6.6-1.2,9.6-2.4l2-0.8c0.5-0.2,0.9-0.1,1.2,0.2l0.2,0.4c0,0.4-0.3,0.8-0.8,1
				l-2,0.8c-4.2,1.4-7.1,2.1-8.7,2.3l2.5,6.5c0.1,0.2,0.3,0.2,0.6,0.1c3.4-2.1,5.9-3.8,7.6-5.2l0.3-0.1c0.3,0,0.6,0.2,0.8,0.7
				c0.3,0.8-2.4,2.8-8,6.2l0,0.3c1.4,3.8,3.3,5.7,5.5,5.8c0.2,0,0.4,0,0.6-0.1l0.1-0.1c1.6-0.6,3.4-2.8,5.4-6.7l0.4-0.2
				c0.2-0.1,0.4,0.1,0.8,0.4l0.2,0.4c-1.9,4.2-4,6.8-6.3,7.7c-1.8,0.7-3.6,0-5.5-2c-1.7-2.2-3.3-5.1-4.7-8.8l-2.2-5.8
				C22.4,71.4,22.5,71.1,22.8,70.8z"/>
			<path class="st0" d="M38.5,64.8c3.7-0.9,6-0.1,7,2.5c0.5,1.3,0.4,3.5-0.2,6.8c4,0,6.4,0.9,7,2.6c0.7,1.9-0.1,3.8-2.5,5.7
				l-0.5,0.2C48,83.1,47,82.8,46,81.8c-0.6,0.2-1.7-1-3.3-3.6c-2.8-4.1-4.7-7.4-5.8-9.8l-0.3-0.8c-0.2-1.3,0.4-2.2,1.8-2.7
				L38.5,64.8z M38.1,67.2l0.6,1.7c0.2-0.9,0.5-1.4,1-1.6c0.5,0,0.8,0.2,0.9,0.5c-0.3,0.7-0.2,1.8,0.5,3.5l0.6,1.5
				c0.9,2.4,2.2,4.6,3.9,6.8c0.8-0.3,1.2-0.2,1.4,0.2l0.2,0.8c0.3,0.7,0.8,0.9,1.7,0.5c1.9-1.2,2.5-2.6,2-4.1
				c-0.6-0.9-2.8-1.4-6.5-1.5c-0.4-0.5-0.6-0.8-0.7-0.9c0.6-3.6,0.8-5.7,0.5-6.4L44,67.7c-0.6-1.5-2.1-2.1-4.6-1.6l-0.6,0.2
				C38.3,66.5,38.1,66.8,38.1,67.2z"/>
			<path class="st0" d="M48.4,61c0.3-0.1,0.8,0,1.4,0.4c1.9-0.2,4.4,0.7,7.5,2.7c2.2,1.7,3.7,3.6,4.4,5.5c0.9,2.4,0.2,5.2-2.1,8.6
				c-0.6,0.5-1.1,0.9-1.6,1.1c-0.7,0.3-1.6-0.4-2.4-2c-3.7-5.2-6.1-9.2-7.2-12l-0.7-1.9C47.1,62.2,47.4,61.4,48.4,61z M49.8,63.1
				l0.4,0.9c2.9,5.9,5.4,10.5,7.6,13.6c1.4-1.4,2.2-2.8,2.4-4.3c0.2-1.5,0.2-2.7-0.1-3.5c-1.1-2.8-3.8-5.1-8.1-6.7
				c-1-0.2-1.6-0.3-1.9-0.2L49.8,63.1z"/>
			<path class="st0" d="M58,57.4l0.1-0.1c3.3-0.4,6.6-1.2,9.6-2.4l2-0.8c0.5-0.2,0.9-0.1,1.2,0.2l0.2,0.4c0,0.4-0.3,0.8-0.8,1
				l-2,0.8c-4.2,1.4-7.1,2.1-8.7,2.3l2.5,6.5c0.1,0.2,0.3,0.2,0.6,0.1c3.4-2.1,5.9-3.8,7.6-5.2l0.3-0.1c0.3,0,0.6,0.2,0.8,0.7
				c0.3,0.8-2.4,2.8-8,6.2l0,0.3c1.4,3.8,3.3,5.7,5.5,5.8c0.2,0,0.4,0,0.6-0.1l0.1-0.1c1.6-0.6,3.4-2.8,5.4-6.7l0.4-0.2
				c0.2-0.1,0.4,0.1,0.8,0.4l0.2,0.4c-1.9,4.2-4,6.8-6.3,7.7c-1.8,0.7-3.6,0-5.5-2c-1.7-2.2-3.3-5.1-4.7-8.8l-2.2-5.8
				C57.6,58,57.7,57.7,58,57.4z"/>
			<path class="st0" d="M72.2,52c0.6-0.2,1.8,1,3.5,3.6c4.5,4,8.4,7.1,11.8,9.5c-2.3-9.5-3.3-15.1-3.1-16.7
				c-0.1-0.2,0.1-0.5,0.6-0.8c0.5,0,0.8,0.1,0.8,0.2l0.2,0.5c0.6,4,1.7,9.6,3.4,16.9c0,1.2-0.2,1.9-0.4,2.2l-0.6,0.2
				c-2-0.9-6.3-4.1-12.8-9.8c-1.4-1.2-2.7-2.8-4-4.7C71.5,52.6,71.7,52.2,72.2,52z"/>
			<path class="st0" d="M90.1,45.1l0.5-0.2c1.2-0.5,2.5-0.1,3.9,1.1c0,0.5-0.2,0.8-0.6,1l-2.4-0.6l-0.7,0.3c-1.6,1.1-2,2.7-1.1,4.9
				c1.1,2.9,4.4,4.2,10,3.8c2.2,0.2,3.5,0.8,3.9,1.9l0.1,0.1c0.6,1.6-0.7,3.7-4.1,6.3c-1.3,0.1-2.1-0.2-2.5-1.1l-0.1-0.1
				c-0.1-0.1,0.1-0.4,0.4-0.8c0.4-0.1,1,0,1.7,0.4c2.3-2,3.2-3.5,2.9-4.4c-0.2-0.4-2.3-0.7-6.4-0.7c-3.6-0.5-5.6-1.6-6.2-3.1
				c-0.2,0.1-0.6-0.6-1.2-1.9c-0.5-3.1-0.3-4.9,0.7-5.3C88.9,45.9,89.3,45.4,90.1,45.1z"/>
			<path class="st0" d="M106.2,39.6l0.4-0.2c1-0.4,3.9,3.6,8.5,11.8l3.8,5.8l0.1,0.1c0,0.2-0.1,0.5-0.5,0.8
				c-0.7,0.3-1.9-1.3-3.7-4.6c-2-3-3.1-4.8-3.3-5.4l-0.1,0.1c-0.1,0.1-0.3,0.3-0.5,0.3l-0.4,0.2c-1.2,0.5-3.6,0.8-7,1.1l0.3,0.8
				c0.6,1.6,2.1,4.4,4.4,8.5l0.2,0.5c0.1,0.1,0,0.3-0.2,0.6l-0.5,0.2c-0.3,0.1-1.4-1.4-3.4-4.4c-1-1.8-2-3.7-3-5.9
				c0-0.5,0.1-0.8,0.1-0.8l-0.5-0.9l-1-2.6c-0.1-0.1,0.1-0.4,0.3-0.7l0.4-0.2c0.1-0.1,0.4,0.1,0.7,0.3l1.1,2.8
				c0.1,0.3,1.8,0.2,5.1-0.3c1.3-0.3,2.1-0.5,2.4-0.6l0.2-1.1c-1.9-3.3-3.1-4.8-3.6-4.6l-0.6-0.8C106,40,106.1,39.7,106.2,39.6z"/>
			<path class="st0" d="M112.3,36.7l0.1-0.1c3.3-0.4,6.6-1.2,9.6-2.4l2-0.8c0.5-0.2,0.9-0.1,1.2,0.2l0.2,0.4c0,0.4-0.3,0.8-0.8,1
				l-2,0.8c-4.2,1.4-7.1,2.1-8.7,2.3l2.5,6.5c0.1,0.2,0.3,0.2,0.6,0.1c3.4-2.1,5.9-3.8,7.6-5.2l0.3-0.1c0.3,0,0.6,0.2,0.8,0.7
				c0.3,0.8-2.4,2.8-8,6.2l0,0.4c1.4,3.8,3.3,5.7,5.5,5.8c0.2,0,0.4,0,0.6-0.1l0.1-0.1c1.6-0.6,3.4-2.8,5.4-6.7l0.4-0.2
				c0.2-0.1,0.4,0.1,0.8,0.4l0.2,0.4c-1.9,4.2-4,6.8-6.3,7.7c-1.8,0.7-3.6,0-5.5-2c-1.7-2.2-3.3-5.1-4.7-8.8l-2.2-5.8
				C111.8,37.3,112,37.1,112.3,36.7z"/>
			<path class="st0" d="M127.9,30.7c0.6,0,1,0.2,1.2,0.7c0,0.5,1.3,5.7,3.9,15.7l0.3,0.8l0.5,0.9l0.8-0.3l6.3-6.3
				c0.5-0.2,0.8-0.1,1.1,0.2l0.1,0.4c-0.1,0.4-1.8,2.2-5.3,5.6c0.1,0.3-0.4,0.8-1.7,1.5l-0.5,0.2c-1.2,0.5-2.1-0.1-2.8-1.8l-0.2-0.7
				L127.7,33l-0.3-0.8C127.2,31.7,127.4,31.2,127.9,30.7z"/>
			<path class="st0" d="M139.1,26.5c0.6,0,1,0.2,1.2,0.7c0,0.5,1.3,5.7,3.9,15.7l0.3,0.8l0.5,0.9l0.8-0.3L152,38
				c0.5-0.2,0.8-0.1,1.1,0.2l0.1,0.4c-0.1,0.4-1.8,2.2-5.3,5.6c0.1,0.3-0.4,0.8-1.7,1.5l-0.5,0.2c-1.2,0.5-2.1-0.1-2.8-1.8l-0.2-0.7
				l-3.8-14.7l-0.3-0.8C138.5,27.5,138.6,27,139.1,26.5z"/>
			<path class="st0" d="M149.2,22.6c0.5,0,0.8,0.2,0.9,0.5c-0.1,0.3-0.1,0.6,0,0.9c1,2.6,3.1,4.3,6.2,5l0.9-0.2l1-0.4
				c1.2-0.5,1.4-3.3,0.4-8.5l0.4-0.8l0.4-0.1c0.2,0,0.4,0.1,0.7,0.4c0.6,3.2,0.9,7.4,1,12.5c0,5.5-1,8.6-3.2,9.5l-0.3,0.1
				c-1.8,0.3-2.9-0.1-3.4-1.4c0-0.4,0.1-0.7,0.3-0.8l0.4-0.1c0.2-0.1,0.6,0.2,1.1,0.9c0.5,0.2,0.9,0.2,1.2,0.1l0.3-0.1
				c1.7-0.7,2.5-4.2,2.2-10.7l-0.1,0l-0.7,0.4l-0.9,0.3c-2.4,0.9-5-0.2-8-3.4c-0.7-1.2-1.2-2-1.3-2.2l-0.1-0.4
				C148.5,23.3,148.7,22.8,149.2,22.6z"/>
		</g>
		<g class="st1">
			<path class="st0" d="M61.2,87.7l0.4,7.3l-0.3,0.1l-4.4-5.5l0,0l0.3,7l-0.4,0.1l-4.5-5.8l0.2-0.1l4.3,5.5l0,0l-0.4-7l0.4-0.2
				l4.4,5.5l0,0l-0.4-7L61.2,87.7z"/>
			<path class="st0" d="M63.5,92c0.2,0.3,0.5,0.6,0.8,0.8c0.3,0.2,0.7,0.3,1,0.4c0.4,0,0.8,0,1.3-0.2c0.7-0.3,1.2-0.7,1.5-1.2
				c0.3-0.5,0.4-1.2,0.2-1.9l0.3-0.1c0.2,0.8,0.1,1.5-0.2,2.1c-0.3,0.6-0.9,1.1-1.6,1.3c-0.5,0.2-1,0.3-1.4,0.3
				c-0.4,0-0.8-0.2-1.2-0.4c-0.3-0.2-0.7-0.5-0.9-0.9c-0.3-0.4-0.5-0.8-0.7-1.3c-0.2-0.5-0.3-1.1-0.3-1.5c0-0.5,0.1-0.9,0.2-1.3
				c0.2-0.4,0.4-0.7,0.7-1c0.3-0.3,0.6-0.5,1-0.6c0.5-0.2,1-0.3,1.4-0.2c0.4,0.1,0.8,0.2,1.2,0.4c0.4,0.2,0.7,0.5,0.9,0.9
				c0.3,0.4,0.5,0.8,0.6,1.2l-5.5,2.1C63.1,91.2,63.3,91.6,63.5,92z M67.4,87.5c-0.2-0.3-0.5-0.6-0.8-0.8c-0.3-0.2-0.7-0.3-1-0.3
				c-0.4,0-0.8,0-1.2,0.2c-0.4,0.1-0.7,0.3-0.9,0.6c-0.3,0.3-0.5,0.6-0.6,0.9c-0.1,0.3-0.2,0.7-0.2,1.1s0.1,0.9,0.2,1.3l5.2-2
				C67.8,88.2,67.6,87.8,67.4,87.5z"/>
			<path class="st0" d="M69.1,86.7c-0.1-0.7,0-1.2,0.4-1.8c0.3-0.5,0.8-0.9,1.5-1.2c0.4-0.2,0.9-0.2,1.3-0.2
				c0.4,0.1,0.8,0.2,1.2,0.4c0.4,0.2,0.7,0.5,0.9,0.9c0.3,0.4,0.5,0.8,0.7,1.2c0.2,0.5,0.3,1,0.3,1.4c0,0.5,0,0.9-0.1,1.3
				c-0.1,0.4-0.3,0.7-0.6,1c-0.3,0.3-0.6,0.5-1.1,0.7c-0.7,0.3-1.3,0.3-1.9,0.1c-0.6-0.2-1.1-0.5-1.5-1.1l0,0l0.7,1.8l-0.3,0.1
				l-3.5-9.1l0.3-0.1L69.1,86.7L69.1,86.7z M70.2,89.3c0.3,0.3,0.6,0.6,0.9,0.8c0.3,0.2,0.7,0.3,1.1,0.4s0.8,0,1.2-0.2
				c0.4-0.2,0.8-0.4,1-0.7c0.3-0.3,0.4-0.6,0.5-1c0.1-0.4,0.1-0.8,0.1-1.2c0-0.4-0.1-0.8-0.3-1.3c-0.1-0.4-0.3-0.7-0.6-1.1
				c-0.2-0.3-0.5-0.6-0.8-0.8c-0.3-0.2-0.7-0.4-1.1-0.4s-0.8,0-1.3,0.2c-0.8,0.3-1.3,0.8-1.6,1.5c-0.3,0.7-0.2,1.6,0.2,2.6
				C69.8,88.6,70,89,70.2,89.3z"/>
			<path class="st0" d="M82.8,76.5l3.5,9.1L86,85.7l-0.7-1.8l0,0c0.1,0.6-0.1,1.2-0.4,1.8c-0.3,0.5-0.8,0.9-1.5,1.2
				C83,87,82.6,87,82.2,87s-0.8-0.2-1.1-0.4s-0.7-0.5-1-0.9c-0.3-0.4-0.5-0.8-0.7-1.3c-0.2-0.5-0.3-0.9-0.3-1.4s0-0.9,0.1-1.3
				c0.1-0.4,0.3-0.8,0.6-1.1c0.3-0.3,0.6-0.6,1.1-0.7c0.7-0.3,1.3-0.3,1.9-0.1c0.6,0.2,1.1,0.6,1.4,1.1l0,0l-1.7-4.4L82.8,76.5z
				 M83.1,80.3c-0.7-0.4-1.4-0.4-2.2-0.1c-0.4,0.2-0.8,0.4-1,0.7s-0.4,0.7-0.5,1c-0.1,0.4-0.1,0.8-0.1,1.2c0,0.4,0.1,0.8,0.3,1.2
				c0.2,0.4,0.4,0.8,0.6,1.1c0.2,0.3,0.5,0.6,0.9,0.8c0.3,0.2,0.7,0.3,1,0.4c0.4,0,0.8,0,1.2-0.2c0.4-0.2,0.8-0.4,1-0.7
				c0.3-0.3,0.4-0.6,0.6-1c0.1-0.4,0.2-0.8,0.1-1.2s-0.1-0.8-0.3-1.3C84.4,81.4,83.8,80.7,83.1,80.3z"/>
			<path class="st0" d="M87,83c0.2,0.3,0.5,0.6,0.8,0.8c0.3,0.2,0.7,0.3,1,0.4s0.8,0,1.3-0.2c0.7-0.3,1.2-0.7,1.5-1.2
				c0.3-0.5,0.4-1.2,0.2-1.9l0.3-0.1c0.2,0.8,0.1,1.5-0.2,2.1c-0.3,0.6-0.9,1.1-1.6,1.3c-0.5,0.2-1,0.3-1.4,0.3
				c-0.4,0-0.8-0.2-1.2-0.4c-0.3-0.2-0.7-0.5-0.9-0.9c-0.3-0.4-0.5-0.8-0.7-1.3c-0.2-0.5-0.3-1.1-0.3-1.5c0-0.5,0.1-0.9,0.2-1.3
				c0.2-0.4,0.4-0.7,0.7-1c0.3-0.3,0.6-0.5,1-0.6c0.5-0.2,1-0.3,1.4-0.2c0.4,0.1,0.8,0.2,1.2,0.4c0.4,0.2,0.7,0.5,0.9,0.9
				c0.3,0.4,0.5,0.8,0.6,1.2l-5.5,2.1C86.6,82.3,86.8,82.7,87,83z M90.9,78.5c-0.2-0.3-0.5-0.6-0.8-0.8c-0.3-0.2-0.7-0.3-1-0.3
				c-0.4,0-0.8,0-1.2,0.2c-0.4,0.1-0.7,0.3-0.9,0.6c-0.3,0.3-0.5,0.6-0.6,0.9c-0.1,0.3-0.2,0.7-0.2,1.1c0,0.4,0.1,0.9,0.2,1.3l5.2-2
				C91.3,79.2,91.1,78.9,90.9,78.5z"/>
			<path class="st0" d="M96.2,74.3l0,7.5l-0.3,0.1l-5.2-5.5l0.3-0.1l4.9,5.3l0,0l-0.1-7.2L96.2,74.3z"/>
			<path class="st0" d="M98.5,78.6c0.2,0.3,0.5,0.6,0.8,0.8c0.3,0.2,0.7,0.3,1,0.4s0.8,0,1.3-0.2c0.7-0.3,1.2-0.7,1.5-1.2
				c0.3-0.5,0.4-1.2,0.2-1.9l0.3-0.1c0.2,0.8,0.1,1.5-0.2,2.1c-0.3,0.6-0.9,1.1-1.6,1.3c-0.5,0.2-1,0.3-1.4,0.3
				c-0.4,0-0.8-0.2-1.2-0.4c-0.3-0.2-0.7-0.5-0.9-0.9c-0.3-0.4-0.5-0.8-0.7-1.3c-0.2-0.5-0.3-1.1-0.3-1.5c0-0.5,0.1-0.9,0.2-1.3
				c0.2-0.4,0.4-0.7,0.7-1c0.3-0.3,0.6-0.5,1-0.6c0.5-0.2,1-0.3,1.4-0.2c0.4,0.1,0.8,0.2,1.2,0.4c0.4,0.2,0.7,0.5,0.9,0.9
				s0.5,0.8,0.6,1.2l-5.5,2.1C98.1,77.9,98.3,78.3,98.5,78.6z M102.4,74.2c-0.2-0.3-0.5-0.6-0.8-0.8c-0.3-0.2-0.7-0.3-1-0.3
				c-0.4,0-0.8,0-1.2,0.2c-0.4,0.1-0.7,0.3-0.9,0.6c-0.3,0.3-0.5,0.6-0.6,0.9c-0.1,0.3-0.2,0.7-0.2,1.1c0,0.4,0.1,0.9,0.2,1.3l5.2-2
				C102.8,74.8,102.7,74.5,102.4,74.2z"/>
			<path class="st0" d="M102.4,69.1l3.5,9.1l-0.3,0.1l-3.5-9.1L102.4,69.1z"/>
			<path class="st0" d="M105.4,73.1c0-0.5,0-0.9,0.2-1.3c0.1-0.4,0.3-0.8,0.6-1.1c0.3-0.3,0.7-0.6,1.2-0.8c0.5-0.2,0.9-0.2,1.4-0.2
				c0.4,0.1,0.8,0.2,1.2,0.4c0.4,0.2,0.7,0.5,1,0.9c0.3,0.4,0.5,0.8,0.7,1.2c0.2,0.4,0.3,0.9,0.3,1.4c0,0.5,0,0.9-0.2,1.3
				c-0.1,0.4-0.3,0.8-0.6,1.1c-0.3,0.3-0.7,0.6-1.2,0.8c-0.5,0.2-0.9,0.2-1.4,0.2c-0.4,0-0.8-0.2-1.2-0.4c-0.4-0.2-0.7-0.5-1-0.9
				c-0.3-0.4-0.5-0.8-0.7-1.2C105.5,74,105.4,73.5,105.4,73.1z M106.5,75.5c0.3,0.3,0.6,0.6,0.9,0.8c0.3,0.2,0.7,0.3,1.1,0.4
				s0.8,0,1.3-0.2c0.4-0.2,0.8-0.4,1-0.7c0.3-0.3,0.5-0.6,0.6-1c0.1-0.4,0.2-0.8,0.1-1.2c0-0.4-0.1-0.8-0.3-1.3
				c-0.2-0.4-0.4-0.8-0.6-1.1c-0.3-0.3-0.6-0.6-0.9-0.8c-0.3-0.2-0.7-0.3-1.1-0.4c-0.4-0.1-0.8,0-1.2,0.2c-0.4,0.2-0.8,0.4-1.1,0.7
				c-0.3,0.3-0.5,0.6-0.6,1c-0.1,0.4-0.2,0.8-0.1,1.2s0.1,0.8,0.3,1.2C106.1,74.8,106.3,75.1,106.5,75.5z"/>
			<path class="st0" d="M114.7,77.3l-3.3-8.8l0.3-0.1l0.7,1.8l0,0c0-0.3,0-0.6,0.1-0.9c0.1-0.3,0.2-0.6,0.3-0.8
				c0.2-0.3,0.4-0.5,0.6-0.7c0.2-0.2,0.5-0.4,0.9-0.5c0.4-0.2,0.9-0.2,1.3-0.2c0.4,0,0.8,0.2,1.1,0.4c0.4,0.2,0.7,0.5,1,0.9
				c0.3,0.4,0.5,0.8,0.7,1.3c0.2,0.5,0.3,0.9,0.3,1.4c0,0.5,0,0.9-0.1,1.3c-0.1,0.4-0.3,0.8-0.6,1.1c-0.3,0.3-0.6,0.6-1.1,0.7
				c-0.7,0.3-1.3,0.3-1.9,0.1c-0.6-0.2-1.1-0.5-1.4-1.1l0,0l1.5,4.1L114.7,77.3z M117.7,73.1c0.2-0.3,0.4-0.7,0.5-1
				c0.1-0.4,0.1-0.8,0.1-1.2c0-0.4-0.1-0.8-0.3-1.2c-0.2-0.4-0.4-0.8-0.6-1.1s-0.5-0.6-0.9-0.8c-0.3-0.2-0.7-0.3-1.1-0.4
				c-0.4,0-0.8,0-1.2,0.2c-0.4,0.2-0.8,0.4-1,0.7c-0.3,0.3-0.5,0.6-0.6,1c-0.1,0.4-0.2,0.8-0.1,1.2c0,0.4,0.1,0.9,0.3,1.3
				c0.4,1,0.9,1.7,1.6,2.1c0.7,0.4,1.4,0.4,2.2,0.1C117.1,73.7,117.5,73.5,117.7,73.1z"/>
			<path class="st0" d="M119.9,70.5c0.2,0.3,0.5,0.6,0.8,0.8c0.3,0.2,0.7,0.3,1,0.4c0.4,0,0.8,0,1.3-0.2c0.7-0.3,1.2-0.7,1.5-1.2
				c0.3-0.5,0.4-1.2,0.2-1.9l0.3-0.1c0.2,0.8,0.1,1.5-0.2,2.1s-0.9,1.1-1.6,1.3c-0.5,0.2-1,0.3-1.4,0.3c-0.4,0-0.8-0.2-1.2-0.4
				c-0.3-0.2-0.7-0.5-0.9-0.9s-0.5-0.8-0.7-1.3c-0.2-0.5-0.3-1.1-0.3-1.5c0-0.5,0.1-0.9,0.2-1.3c0.2-0.4,0.4-0.7,0.7-1
				s0.6-0.5,1-0.6c0.5-0.2,1-0.3,1.4-0.2c0.4,0.1,0.8,0.2,1.2,0.4c0.4,0.2,0.7,0.5,0.9,0.9c0.3,0.4,0.5,0.8,0.6,1.2l-5.5,2.1
				C119.5,69.8,119.7,70.1,119.9,70.5z M123.8,66c-0.2-0.3-0.5-0.6-0.8-0.8c-0.3-0.2-0.7-0.3-1.1-0.3c-0.4,0-0.8,0-1.2,0.2
				c-0.4,0.1-0.7,0.3-0.9,0.6c-0.3,0.3-0.5,0.6-0.6,0.9c-0.1,0.3-0.2,0.7-0.2,1.1c0,0.4,0.1,0.9,0.2,1.3l5.2-2
				C124.2,66.7,124,66.3,123.8,66z"/>
			<path class="st0" d="M127,70.1l-2.5-6.5l0.3-0.1l0.6,1.6l0,0c0-0.3,0-0.5,0-0.8c0-0.3,0.1-0.5,0.3-0.8c0.1-0.2,0.4-0.5,0.6-0.7
				c0.3-0.2,0.6-0.4,1-0.5l0.1,0.3c-0.5,0.1-0.8,0.4-1.1,0.6c-0.3,0.3-0.5,0.6-0.6,0.9s-0.2,0.7-0.1,1.1s0.1,0.7,0.2,1.1l1.4,3.7
				L127,70.1z"/>
		</g>
	</g>
</g>
</svg>
